<svg xmlns="http://www.w3.org/2000/svg" viewBox="0 0 49.5 47.07"><defs><style>.cls-1{fill:#fff;}</style></defs><title>Asset 6</title><g id="Layer_2" data-name="Layer 2"><g id="brush"><path class="cls-1" d="M48.83.67c-1.42-1.42-4.27-.61-9,2.55A96.83,96.83,0,0,0,26.39,14.67c-7,7-12.26,13.81-14,18a5.44,5.44,0,0,0-.9-.25A7.1,7.1,0,0,0,6,33.71,7.94,7.94,0,0,0,3,38.17a13,13,0,0,1-2.7,5.08,1.17,1.17,0,0,0,.1,1.62,8.81,8.81,0,0,0,5.91,2.2A10.66,10.66,0,0,0,12.49,45a12.13,12.13,0,0,0,1.71-1.49,7.38,7.38,0,0,0,2-6.15c4.14-1.49,11.37-7,18.65-14.26A96.83,96.83,0,0,0,46.28,9.64C49.44,4.94,50.25,2.09,48.83.67ZM12.51,41.94a9.47,9.47,0,0,1-1.36,1.19,7.57,7.57,0,0,1-8.35.66,15.39,15.39,0,0,0,2.42-5h0l0-.06A5.55,5.55,0,0,1,7.37,35.6,4.75,4.75,0,0,1,11,34.72a3.55,3.55,0,0,1,2.35,1.59A4.77,4.77,0,0,1,12.51,41.94Zm2.88-6.74a4.21,4.21,0,0,0-1-1.28,27.58,27.58,0,0,1,3.46-5.87l3.62,3.62A27.49,27.49,0,0,1,15.39,35.2Zm7.93-4.93-4.09-4.09c.71-.91,1.47-1.85,2.29-2.81L26.14,28C25.16,28.81,24.22,29.58,23.32,30.27ZM44,8.86A95.49,95.49,0,0,1,33.19,21.47c-1.83,1.84-3.61,3.51-5.3,5L23,21.61c1.54-1.74,3.22-3.53,5-5.3A95.49,95.49,0,0,1,40.64,5.5c4.63-3.21,6.23-3.22,6.53-3.17C47.22,2.63,47.21,4.23,44,8.86Z"/><path class="cls-1" d="M11.53,38.82a1.16,1.16,0,0,0-1.57.46.83.83,0,0,1-.11.15,5.39,5.39,0,0,1-.67.58,4.36,4.36,0,0,1-1.43.68A1.15,1.15,0,0,0,8,43a1.43,1.43,0,0,0,.29,0,6.93,6.93,0,0,0,2.2-1,11.21,11.21,0,0,0,1-.88,3.92,3.92,0,0,0,.45-.62A1.16,1.16,0,0,0,11.53,38.82Z"/></g></g></svg>