<svg xmlns="http://www.w3.org/2000/svg" viewBox="0 0 50 49.96"><defs><style>.cls-1{fill:#fff;}</style></defs><title>Asset 9</title><g id="Layer_2" data-name="Layer 2"><g id="bubles"><path class="cls-1" d="M32.51,8.33a17.31,17.31,0,0,0-11.66,4.48,11.66,11.66,0,1,0-5.08,18.08,18.31,18.31,0,0,0,.87,2.27,9.16,9.16,0,1,0,13.88,10,17.48,17.48,0,1,0,2-34.84ZM1.7,20a10,10,0,0,1,18-6,17.33,17.33,0,0,0-4.29,15.27A10,10,0,0,1,1.7,20Zm20,28.32a7.5,7.5,0,1,1,7.5-7.5A7.49,7.49,0,0,1,21.68,48.3Zm10.83-6.67a14,14,0,0,1-1.71-.1c0-.24,0-.48,0-.73a9.16,9.16,0,0,0-12.73-8.43,15.46,15.46,0,0,1-1-2.8A15.82,15.82,0,1,1,32.51,41.63Z"/><path class="cls-1" d="M7.53,37.47a.84.84,0,0,0-.84-.83.83.83,0,0,0-.83.83A2.5,2.5,0,0,1,3.36,40a.83.83,0,0,0,0,1.66,2.5,2.5,0,0,1,2.5,2.5.83.83,0,0,0,.83.83.84.84,0,0,0,.84-.83A2.49,2.49,0,0,1,10,41.63.83.83,0,1,0,10,40,2.49,2.49,0,0,1,7.53,37.47Zm-.84,4.19a3.9,3.9,0,0,0-.86-.86,3.9,3.9,0,0,0,.86-.86,4.12,4.12,0,0,0,.86.86A4.12,4.12,0,0,0,6.69,41.66Z"/><path class="cls-1" d="M40.83,7.49a.85.85,0,0,0,.84.84.84.84,0,0,0,.83-.84A2.49,2.49,0,0,1,45,5a.84.84,0,0,0,.83-.84A.83.83,0,0,0,45,3.33,2.5,2.5,0,0,1,42.5.83.83.83,0,0,0,41.67,0a.84.84,0,0,0-.84.83,2.5,2.5,0,0,1-2.5,2.5.83.83,0,0,0-.83.83.84.84,0,0,0,.83.84A2.49,2.49,0,0,1,40.83,7.49Zm.84-4.18a4.28,4.28,0,0,0,.85.85,4.61,4.61,0,0,0-.85.86,5,5,0,0,0-.86-.86A4.61,4.61,0,0,0,41.67,3.31Z"/><path class="cls-1" d="M43.33,25.81a2.5,2.5,0,0,1-2.5-2.5.83.83,0,0,0-1.66,0,2.5,2.5,0,0,1-2.5,2.5.84.84,0,0,0-.83.84.83.83,0,0,0,.83.83,2.5,2.5,0,0,1,2.5,2.5.83.83,0,1,0,1.66,0,2.5,2.5,0,0,1,2.5-2.5.83.83,0,0,0,.83-.83A.84.84,0,0,0,43.33,25.81ZM40,27.5a4.08,4.08,0,0,0-.86-.85,4.38,4.38,0,0,0,.86-.86,4.38,4.38,0,0,0,.86.86A4.08,4.08,0,0,0,40,27.5Z"/><path class="cls-1" d="M34.17,19.15a.83.83,0,0,0-.83-.83,2.5,2.5,0,0,1-2.5-2.5.83.83,0,1,0-1.66,0,2.5,2.5,0,0,1-2.5,2.5.83.83,0,1,0,0,1.66,2.5,2.5,0,0,1,2.5,2.5.83.83,0,0,0,1.66,0,2.5,2.5,0,0,1,2.5-2.5A.83.83,0,0,0,34.17,19.15ZM30,20a3.9,3.9,0,0,0-.86-.86,3.9,3.9,0,0,0,.86-.86,3.9,3.9,0,0,0,.86.86A3.9,3.9,0,0,0,30,20Z"/><path class="cls-1" d="M10,34.16h1.67v1.66H10Z"/><path class="cls-1" d="M1.65,45.82H3.32v1.67H1.65Z"/><path class="cls-1" d="M49.16,43.3a2.5,2.5,0,1,0-2.5,2.5A2.5,2.5,0,0,0,49.16,43.3Zm-3.33,0a.83.83,0,1,1,.83.83A.83.83,0,0,1,45.83,43.3Z"/><path class="cls-1" d="M25,5.83a3.33,3.33,0,1,0-3.33,3.33A3.33,3.33,0,0,0,25,5.83Zm-5,0a1.67,1.67,0,1,1,1.66,1.66A1.66,1.66,0,0,1,20,5.83Z"/><path class="cls-1" d="M30,4.16h1.67V5.82H30Z"/><path class="cls-1" d="M33.32,35H35v1.67H33.32Z"/><path class="cls-1" d="M38.32,45.82H40v1.67H38.32Z"/><path class="cls-1" d="M10,21.66h1.67v1.66H10Z"/><path class="cls-1" d="M3.32,21.72,5,21.57s-.33-4,1.86-6.41a6.2,6.2,0,0,1,4.8-1.84V11.66a7.8,7.8,0,0,0-6,2.38C2.93,17,3.31,21.53,3.32,21.72Z"/><path class="cls-1" d="M33.32,11.66v1.66c.41,0,10.12.18,11.66,11.77l1.65-.22C44.89,11.81,33.43,11.66,33.32,11.66Z"/></g></g></svg>