<svg xmlns="http://www.w3.org/2000/svg" viewBox="0 0 50 35.75"><defs><style>.cls-1{fill:#fff;}</style></defs><title>Asset 5</title><g id="Layer_2" data-name="Layer 2"><g id="erase"><path class="cls-1" d="M45.35,33.8H19l.88-.89,16.24-16.3a5.49,5.49,0,0,0,0-7.73L28.87,1.6a5.46,5.46,0,0,0-7.72,0L4.92,17.9,1.59,21.24a5.49,5.49,0,0,0,0,7.73l6.47,6.49a.94.94,0,0,0,.69.29H45.32a1,1,0,0,0,1-.83A1,1,0,0,0,45.35,33.8ZM22.54,3a3.46,3.46,0,0,1,4.93,0l7.24,7.26a3.54,3.54,0,0,1,0,5L19.19,30.84,7,18.62ZM3,27.6a3.51,3.51,0,0,1,0-5L5.64,20,17.82,32.22,16.25,33.8H9.19Z"/><path class="cls-1" d="M49,35.75a1,1,0,0,1-.82-1.53.86.86,0,0,1,.74-.42h.12a.91.91,0,0,1,.83.51A1,1,0,0,1,49,35.75Z"/></g></g></svg>