<svg xmlns="http://www.w3.org/2000/svg" viewBox="0 0 50 50.38"><defs><style>.cls-1{fill:#fff;}</style></defs><title>Asset 3</title><g id="Layer_2" data-name="Layer 2"><g id="color"><circle class="cls-1" cx="33.06" cy="23.22" r="0.98"/><path class="cls-1" d="M33.23,27.44a1,1,0,0,0-1.12.83c-.27,1.81-1.8,3.32-4.1,4-2.46.75-5.88.5-8-1.77a1,1,0,1,0-1.45,1.33,8.6,8.6,0,0,0,4.73,2.59,10.13,10.13,0,0,0,2.06.2,11,11,0,0,0,3.19-.47c3.05-.94,5.1-3,5.48-5.62A1,1,0,0,0,33.23,27.44Z"/><path class="cls-1" d="M46.91,18.74a12.16,12.16,0,0,0-7.23-4,56,56,0,0,0,7-5.5C49.39,6.74,50.29,5,49.54,3.66s-3.23-1.43-7.55,0a75.69,75.69,0,0,0-12.8,6c-.8.46-1.59.93-2.36,1.41A5.31,5.31,0,0,1,27.9,6.07a3.78,3.78,0,0,0,.55-4A4,4,0,0,0,24.72,0h0A24.43,24.43,0,0,0,8.14,6.67a24.83,24.83,0,0,0-8,16A25.27,25.27,0,0,0,25.19,50.38a26.91,26.91,0,0,0,10.54-2.05A23.83,23.83,0,0,0,43.49,43a23.49,23.49,0,0,0,4.8-7.18A21,21,0,0,0,50,28.08,13.74,13.74,0,0,0,46.91,18.74ZM27,13.38c1-.66,2.12-1.31,3.22-1.94A76.08,76.08,0,0,1,42.11,5.73c3.79-1.34,5.34-1.25,5.71-1.08,0,.23-.32,1.25-2.81,3.54a62.14,62.14,0,0,1-8.53,6.33c-1.09.69-2.22,1.37-3.36,2-1.57.91-3.14,1.76-4.68,2.53a14.87,14.87,0,0,0-1.19-2.6,14.28,14.28,0,0,0-1.61-2.26ZM26.65,20a51.25,51.25,0,0,1-7.36,2.9,4.95,4.95,0,0,0-1.49-2.62A50.62,50.62,0,0,1,24,15.33a12.17,12.17,0,0,1,1.55,2.14A12,12,0,0,1,26.65,20ZM48,28.05c-.14,9.8-8.91,20.36-22.84,20.36A23.3,23.3,0,0,1,2.06,22.89C3.05,11.35,13.2,2,24.67,2h0a2,2,0,0,1,2,1,1.78,1.78,0,0,1-.33,1.9,7.2,7.2,0,0,0-1.21,7.34c-.53.34-1.05.68-1.55,1h0a52.93,52.93,0,0,0-7.53,6,4.91,4.91,0,0,0-4,.4c-2,1.18-4.73,6.68-5.25,7.78a1,1,0,0,0,0,.91,1,1,0,0,0,.77.49c.55,0,2.09.15,3.81.15,2.09,0,4.43-.16,5.55-.81a4.91,4.91,0,0,0,2.35-3.22,52.24,52.24,0,0,0,9-3.53c1.91-.93,3.88-2,5.85-3.12,1-.57,2-1.17,2.94-1.77h0C45.27,16.72,48.11,22.62,48,28.05Zm-30.61-4A3,3,0,0,1,16,26.42c-.93.54-4.13.61-6.76.49,1.21-2.33,2.87-5.07,3.8-5.6a3,3,0,0,1,2.85-.06A2.9,2.9,0,0,1,17,22.39,3,3,0,0,1,17.42,24.05Z"/><path class="cls-1" d="M17.32,6.09A3.94,3.94,0,1,0,21.25,10,3.94,3.94,0,0,0,17.32,6.09Zm0,5.9a2,2,0,1,1,2-2A2,2,0,0,1,17.32,12Z"/><path class="cls-1" d="M12.4,32.53a3.94,3.94,0,1,0,3.93,3.93A3.94,3.94,0,0,0,12.4,32.53Zm0,5.9a2,2,0,1,1,2-2A2,2,0,0,1,12.4,38.43Z"/><path class="cls-1" d="M22.24,38.43a3.94,3.94,0,1,0,3.93,3.94A3.95,3.95,0,0,0,22.24,38.43Zm0,5.91a2,2,0,1,1,2-2A2,2,0,0,1,22.24,44.34Z"/><path class="cls-1" d="M34.05,36.46A3.94,3.94,0,1,0,38,40.4,3.95,3.95,0,0,0,34.05,36.46Zm0,5.91a2,2,0,1,1,2-2A2,2,0,0,1,34.05,42.37Z"/><path class="cls-1" d="M41.92,26.62a3.94,3.94,0,1,0,3.93,3.94A3.95,3.95,0,0,0,41.92,26.62Zm0,5.91a2,2,0,1,1,2-2A2,2,0,0,1,41.92,32.53Z"/></g></g></svg>