<svg xmlns="http://www.w3.org/2000/svg" viewBox="0 0 49.86 49.86"><defs><style>.cls-1{fill:#fff;}</style></defs><title>Asset 1</title><g id="Layer_2" data-name="Layer 2"><g id="sellect"><path class="cls-1" d="M49.43,41.17,41,32.74l4.13-4.13a1.46,1.46,0,0,0-.57-2.42L19.78,17.93a1.46,1.46,0,0,0-1.85,1.85l8.26,24.79a1.46,1.46,0,0,0,2.42.57L32.74,41l8.43,8.42a1.45,1.45,0,0,0,2.06,0l6.2-6.2A1.45,1.45,0,0,0,49.43,41.17ZM42.2,46.33l-8.42-8.42a1.47,1.47,0,0,0-2.07,0L28.22,41.4,21.63,21.63,41.4,28.22l-3.49,3.49a1.47,1.47,0,0,0,0,2.07l8.42,8.42Z"/><path class="cls-1" d="M20.44,10.19V1.5A1.48,1.48,0,0,0,19.14,0a1.46,1.46,0,0,0-1.63,1.45v8.77a1.47,1.47,0,0,0,1.63,1.45A1.49,1.49,0,0,0,20.44,10.19Z"/><path class="cls-1" d="M7.63,5.56A1.46,1.46,0,0,0,5.56,7.63l6.2,6.19a1.46,1.46,0,0,0,2.06-2.06Z"/><path class="cls-1" d="M11.76,24.15l-6.2,6.2a1.46,1.46,0,0,0,2.07,2.07l6.19-6.2a1.46,1.46,0,0,0-2.06-2.07Z"/><path class="cls-1" d="M26.22,13.82l6.2-6.19a1.46,1.46,0,0,0-2.07-2.07l-6.2,6.2a1.46,1.46,0,0,0,2.07,2.06Z"/><path class="cls-1" d="M10.19,17.52H1.5A1.48,1.48,0,0,0,0,18.82a1.45,1.45,0,0,0,1.45,1.62h8.77a1.46,1.46,0,0,0,1.45-1.62A1.49,1.49,0,0,0,10.19,17.52Z"/></g></g></svg>