<svg xmlns="http://www.w3.org/2000/svg" viewBox="0 0 49.5 52.74"><defs><style>.cls-1{fill:#fff;}</style></defs><title>Asset 8</title><g id="Layer_2" data-name="Layer 2"><g id="sweap"><path class="cls-1" d="M46.1,1,33.76,24.9,34,25a9.65,9.65,0,0,1,1.47.61,8,8,0,0,1,1.5,1l12.36-24A1.8,1.8,0,1,0,46.1,1Z"/><path class="cls-1" d="M5.33,45.34a28,28,0,0,0,7.16,4.58,37.48,37.48,0,0,0,9,2.81h.22c5-.16,8.82-1.81,11.48-4.9,3.5-4.07,4.76-10.18,4.52-15.44a6.44,6.44,0,0,0-1.66-4.14L35.83,28a6.49,6.49,0,0,0-1.22-.85,7.26,7.26,0,0,0-1.19-.49,3.18,3.18,0,0,0-.51-.13,4.25,4.25,0,0,0-.71-.06,7.63,7.63,0,0,0-4.67,2.2,39.82,39.82,0,0,1-4.13,3.39,18.23,18.23,0,0,1-5.27,2.15,45,45,0,0,1-7.35,1.4A59.39,59.39,0,0,1,4.11,36c-.89,0-1.77,0-2.65-.07H1.22a1.23,1.23,0,0,0-1,.48,1.2,1.2,0,0,0-.18,1.14A18.5,18.5,0,0,0,5.33,45.34ZM3.62,38.48H4a63.79,63.79,0,0,0,7.12-.4c6-.67,10.81-2.12,14.49-4.31a.59.59,0,0,1,.34-.1.62.62,0,0,1,.32.09,63.36,63.36,0,0,0,7.83,3.75.69.69,0,0,1,.44.71,15,15,0,0,1-3.2,8.06c-2.15,2.5-5.34,3.86-9.47,4h0l-.2,0c-.43-.08-1.45-.27-2.81-.65.39-.17.8-.38,1.21-.61s.74-.44,1.1-.67c1.14-.74,2.24-1.57,3.09-2.25a.22.22,0,0,0-.22-.37,29.59,29.59,0,0,1-6.4,1.65c-.67.11-1.32.2-1.91.28s-1.34.15-1.86.2l-.42-.18a29.1,29.1,0,0,1-3.33-1.79,12.18,12.18,0,0,0,1.4-.21c.43-.09.87-.2,1.31-.31,1.27-.35,2.48-.79,3.3-1.11a.14.14,0,0,0-.06-.28c-1.51.15-3.6.16-5.38.14l-1.62,0-1.52-.05c-.21-.17-.41-.35-.6-.52s-.5-.46-.73-.7c.36,0,.74-.09,1.12-.17s.72-.15,1.08-.24a30.85,30.85,0,0,0,3.72-1.21.15.15,0,0,0-.07-.28A50.5,50.5,0,0,1,7,41.07l-1.21,0L4.64,41A17.29,17.29,0,0,1,3.33,39,.33.33,0,0,1,3.62,38.48Z"/><circle class="cls-1" cx="43.12" cy="44.63" r="2.89"/><circle class="cls-1" cx="36.88" cy="51.25" r="1.46"/><circle class="cls-1" cx="44.8" cy="50.91" r="1.46"/></g></g></svg>