<svg xmlns="http://www.w3.org/2000/svg" viewBox="0 0 49.5 49.5"><defs><style>.cls-1{fill:#fff;}</style></defs><title>Asset 7</title><g id="Layer_2" data-name="Layer 2"><g id="wash"><path class="cls-1" d="M48.7,0H8.78A.8.8,0,0,0,8,.8V30.42a4.15,4.15,0,0,0-.79-.08,4,4,0,0,0-4,4v0a4,4,0,0,0-1.51,2.38H.8a.79.79,0,0,0-.8.79v3.2a.8.8,0,0,0,.8.8h.8v2.39A5.59,5.59,0,0,0,7.19,49.5H48.7a.8.8,0,0,0,.8-.8V.8A.8.8,0,0,0,48.7,0Zm-.8,1.6v8H9.58v-8ZM4.43,35.45a.81.81,0,0,0,.4-.8l0-.1a1.5,1.5,0,0,1,0-.22,2.4,2.4,0,0,1,2.4-2.39,2.37,2.37,0,0,1,2,1.17.82.82,0,0,0,.56.38.77.77,0,0,0,.65-.18,2.35,2.35,0,0,1,3.61.65.81.81,0,0,0,.84.4,1.62,1.62,0,0,1,1.85,1.27.78.78,0,0,0,.58.63.8.8,0,0,0,.81-.26,2.37,2.37,0,0,1,4.08.73H3.35A2.38,2.38,0,0,1,4.43,35.45Zm10.74-7.51A13.57,13.57,0,1,1,28.74,41.52a14,14,0,0,1-3.3-.42.84.84,0,0,0,.11-.38V39.49a12.15,12.15,0,0,0,3.19.43,12,12,0,1,0-12-12,11.81,11.81,0,0,0,1.58,5.94,3.25,3.25,0,0,0-.52.28,3.24,3.24,0,0,0-1.72-1.28A13.39,13.39,0,0,1,15.17,27.94ZM20,33.54a10.29,10.29,0,0,1-1.37-3.2h.52a2.7,2.7,0,0,0,1.93-.8l.47-.47a1.16,1.16,0,0,1,1.59,0l.47.47a2.8,2.8,0,0,0,3.86,0l.46-.47a1.17,1.17,0,0,1,1.6,0l.47.47a2.78,2.78,0,0,0,3.85,0l.47-.47a1.17,1.17,0,0,1,1.6,0l.47.47a2.68,2.68,0,0,0,1.92.8h.51a10.35,10.35,0,0,1-13.28,7.47v-.29a.79.79,0,0,0-.8-.79h-.88A4,4,0,0,0,20,33.54Zm-1.65-5.6a10.38,10.38,0,1,1,20.76,0c0,.27,0,.54,0,.8h-.76a1.15,1.15,0,0,1-.8-.33l-.46-.47a2.8,2.8,0,0,0-3.86,0l-.47.47a1.14,1.14,0,0,1-1.59,0l-.47-.47a2.8,2.8,0,0,0-3.86,0l-.46.47a1.15,1.15,0,0,1-1.6,0l-.47-.47a2.78,2.78,0,0,0-3.85,0l-.47.47a1.14,1.14,0,0,1-.8.33h-.77C18.37,28.48,18.36,28.21,18.36,27.94ZM1.6,38.32H24v1.6H1.6Zm16,9.58H7.19a4,4,0,0,1-4-4V41.52H22.35v2.39a4,4,0,0,1-4,4Zm4.71,0a5.59,5.59,0,0,0,1.68-4V42.33a15.25,15.25,0,1,0-9.88-10.58A3.92,3.92,0,0,0,12,31.14a3.87,3.87,0,0,0-1.88.48,4.5,4.5,0,0,0-.52-.46v-20H47.9V47.9Z"/><path class="cls-1" d="M13.57,8a2.4,2.4,0,1,0-2.39-2.39A2.4,2.4,0,0,0,13.57,8Zm0-3.19a.8.8,0,1,1-.8.8A.8.8,0,0,1,13.57,4.79Z"/><path class="cls-1" d="M20,8a2.4,2.4,0,1,0-2.4-2.39A2.39,2.39,0,0,0,20,8Zm0-3.19a.8.8,0,1,1-.8.8A.8.8,0,0,1,20,4.79Z"/><path class="cls-1" d="M26.35,8A2.4,2.4,0,1,0,24,5.59,2.39,2.39,0,0,0,26.35,8Zm0-3.19a.8.8,0,1,1-.8.8A.8.8,0,0,1,26.35,4.79Z"/><path class="cls-1" d="M44.71,6.39h1.6V8h-1.6Z"/><path class="cls-1" d="M44.71,3.19h1.6v1.6h-1.6Z"/><path class="cls-1" d="M41.52,6.39h1.59V8H41.52Z"/><path class="cls-1" d="M41.52,3.19h1.59v1.6H41.52Z"/><path class="cls-1" d="M38.32,6.39h1.6V8h-1.6Z"/><path class="cls-1" d="M38.32,3.19h1.6v1.6h-1.6Z"/><path class="cls-1" d="M35.13,6.39h1.6V8h-1.6Z"/><path class="cls-1" d="M35.13,3.19h1.6v1.6h-1.6Z"/></g></g></svg>